<mxfile host="app.diagrams.net" modified="2022-03-18T10:52:45.366Z" agent="5.0 (Windows NT 10.0; Win64; x64) AppleWebKit/537.36 (KHTML, like Gecko) Chrome/99.0.4844.74 Safari/537.36" etag="NfCtyXNESdNINlup0puG" version="17.1.2" type="github">
  <diagram id="nUB3uoFpLbUTsr4dAyEl" name="Page-1">
    <mxGraphModel dx="1574" dy="883" grid="1" gridSize="10" guides="1" tooltips="1" connect="1" arrows="1" fold="1" page="1" pageScale="1" pageWidth="850" pageHeight="1100" math="0" shadow="0">
      <root>
        <mxCell id="0" />
        <mxCell id="1" parent="0" />
        <mxCell id="mt5wefGQPvI5fBmZUF5S-2" value="Player" style="shape=folder;fontStyle=1;spacingTop=10;tabWidth=40;tabHeight=14;tabPosition=left;html=1;fontSize=19;fillColor=none;" vertex="1" parent="1">
          <mxGeometry x="150" y="80" width="200" height="130" as="geometry" />
        </mxCell>
        <mxCell id="mt5wefGQPvI5fBmZUF5S-3" value="Dealer" style="shape=folder;fontStyle=1;spacingTop=10;tabWidth=40;tabHeight=14;tabPosition=left;html=1;fontSize=19;fillColor=none;" vertex="1" parent="1">
          <mxGeometry x="150" y="230" width="200" height="130" as="geometry" />
        </mxCell>
        <mxCell id="mt5wefGQPvI5fBmZUF5S-4" value="Agent" style="shape=folder;fontStyle=1;spacingTop=10;tabWidth=40;tabHeight=14;tabPosition=left;html=1;fontSize=19;fillColor=none;" vertex="1" parent="1">
          <mxGeometry x="150" y="380" width="200" height="130" as="geometry" />
        </mxCell>
        <mxCell id="mt5wefGQPvI5fBmZUF5S-13" value="access" style="edgeStyle=orthogonalEdgeStyle;rounded=0;orthogonalLoop=1;jettySize=auto;html=1;fontSize=19;dashed=1;" edge="1" parent="1" source="mt5wefGQPvI5fBmZUF5S-5" target="mt5wefGQPvI5fBmZUF5S-11">
          <mxGeometry relative="1" as="geometry" />
        </mxCell>
        <mxCell id="mt5wefGQPvI5fBmZUF5S-5" value="" style="shape=folder;fontStyle=1;spacingTop=10;tabWidth=40;tabHeight=14;tabPosition=left;html=1;fontSize=19;fillColor=none;" vertex="1" parent="1">
          <mxGeometry x="120" width="250" height="540" as="geometry" />
        </mxCell>
        <mxCell id="mt5wefGQPvI5fBmZUF5S-6" value="User" style="text;align=center;fontStyle=1;verticalAlign=middle;spacingLeft=3;spacingRight=3;strokeColor=none;rotatable=0;points=[[0,0.5],[1,0.5]];portConstraint=eastwest;fontSize=19;fillColor=none;" vertex="1" parent="1">
          <mxGeometry x="205" y="20" width="80" height="26" as="geometry" />
        </mxCell>
        <mxCell id="mt5wefGQPvI5fBmZUF5S-8" value="Transactions" style="shape=folder;fontStyle=1;spacingTop=10;tabWidth=40;tabHeight=14;tabPosition=left;html=1;fontSize=19;fillColor=none;" vertex="1" parent="1">
          <mxGeometry x="540" y="80" width="200" height="130" as="geometry" />
        </mxCell>
        <mxCell id="mt5wefGQPvI5fBmZUF5S-9" value="MarketPlace" style="shape=folder;fontStyle=1;spacingTop=10;tabWidth=40;tabHeight=14;tabPosition=left;html=1;fontSize=19;fillColor=none;" vertex="1" parent="1">
          <mxGeometry x="540" y="220" width="200" height="130" as="geometry" />
        </mxCell>
        <mxCell id="mt5wefGQPvI5fBmZUF5S-10" value="Wallet" style="shape=folder;fontStyle=1;spacingTop=10;tabWidth=40;tabHeight=14;tabPosition=left;html=1;fontSize=19;fillColor=none;" vertex="1" parent="1">
          <mxGeometry x="540" y="380" width="200" height="130" as="geometry" />
        </mxCell>
        <mxCell id="mt5wefGQPvI5fBmZUF5S-11" value="" style="shape=folder;fontStyle=1;spacingTop=10;tabWidth=40;tabHeight=14;tabPosition=left;html=1;fontSize=19;fillColor=none;" vertex="1" parent="1">
          <mxGeometry x="500" width="270" height="540" as="geometry" />
        </mxCell>
        <mxCell id="mt5wefGQPvI5fBmZUF5S-12" value="Server" style="text;align=center;fontStyle=1;verticalAlign=middle;spacingLeft=3;spacingRight=3;strokeColor=none;rotatable=0;points=[[0,0.5],[1,0.5]];portConstraint=eastwest;fontSize=19;fillColor=none;" vertex="1" parent="1">
          <mxGeometry x="595" y="20" width="80" height="26" as="geometry" />
        </mxCell>
      </root>
    </mxGraphModel>
  </diagram>
</mxfile>
